<svg xmlns="http://www.w3.org/2000/svg" width="14.712" height="17.986" viewBox="0 0 14.712 17.986">
  <g id="_2962084" data-name="2962084" transform="translate(-282.698 1076.855)">
    <path id="Path_1442" data-name="Path 1442" d="M636.013-1076.836a4.512,4.512,0,0,0-2.614,1.627,4.113,4.113,0,0,0-.713,1.536l-.086.325,0,.346a2.928,2.928,0,0,0,.025.4c.027.068.078.078.441.08a1.366,1.366,0,0,0,.577-.076,3.048,3.048,0,0,0,1.551-.927c.086-.1.216-.245.284-.315a3.659,3.659,0,0,0,.678-1.145,4.161,4.161,0,0,0,.253-1.4l.012-.365-.054-.053C636.311-1076.865,636.279-1076.867,636.013-1076.836Z" transform="translate(-342.695)" fill="#fff"/>
    <path id="Path_1443" data-name="Path 1443" d="M293.126-869.4a10.535,10.535,0,0,0-2.294.634,2.787,2.787,0,0,1-.573.2,3.55,3.55,0,0,1-1.263-.371,8.546,8.546,0,0,0-1.308-.385,2.15,2.15,0,0,0-.793-.01c-.068.019-.282.062-.476.095a3.178,3.178,0,0,0-.964.3,4.377,4.377,0,0,0-2.1,2.163,7.049,7.049,0,0,0-.517,1.38,7.7,7.7,0,0,0-.008,2.883,1.892,1.892,0,0,1,.039.268,4.53,4.53,0,0,0,.192.855,7.108,7.108,0,0,0,.451,1.349,8.734,8.734,0,0,0,1.446,2.533,7.7,7.7,0,0,0,.809.993,2.769,2.769,0,0,0,.82.606,1.559,1.559,0,0,0,.844.212,3.352,3.352,0,0,0,1.409-.358,4.439,4.439,0,0,1,1.176-.332,1.877,1.877,0,0,1,.741.008l.354.054a3.57,3.57,0,0,1,.809.266,4.14,4.14,0,0,0,1.349.346,2.357,2.357,0,0,0,1.777-.814,9.97,9.97,0,0,0,1.8-2.544,7.512,7.512,0,0,0,.455-1.1.949.949,0,0,1,.072-.2.315.315,0,0,0,.039-.111c0-.074-.15-.192-.416-.325a3.7,3.7,0,0,1-1.324-1.195,4.005,4.005,0,0,1-.536-1.2,4.828,4.828,0,0,1-.072-1.483,4.134,4.134,0,0,1,.115-.484,2.859,2.859,0,0,1,.69-1.355,1.786,1.786,0,0,0,.183-.21,4.108,4.108,0,0,1,.628-.525,1.136,1.136,0,0,0,.192-.136c.113-.111.1-.154-.187-.488a4.353,4.353,0,0,0-1.425-1.087,3.6,3.6,0,0,0-.935-.325A5.308,5.308,0,0,0,293.126-869.4Z" transform="translate(0 -203.175)" fill="#fff"/>
  </g>
</svg>
