<svg xmlns="http://www.w3.org/2000/svg" width="25.586" height="25.586" viewBox="0 0 25.586 25.586">
  <g id="add_1_" data-name="add (1)" transform="translate(-12.414 -12.414)">
    <path id="Path_1413" data-name="Path 1413" d="M151.5,153.6h17.1a2.1,2.1,0,1,0,0-4.209H151.5a2.1,2.1,0,0,0,0,4.209Z" transform="translate(-136.977 -136.977)" fill="#16e188"/>
    <path id="Path_1414" data-name="Path 1414" d="M165.357,236.828a2.1,2.1,0,0,0-2.1-2.1H151.5a2.1,2.1,0,0,0,0,4.209h11.757A2.1,2.1,0,0,0,165.357,236.828Z" transform="translate(-136.977 -213.76)" fill="#16e188"/>
    <path id="Path_1415" data-name="Path 1415" d="M157.909,320.057H151.5a2.1,2.1,0,0,0,0,4.209h6.413a2.1,2.1,0,0,0,0-4.209Z" transform="translate(-136.977 -290.542)" fill="#16e188"/>
    <path id="Path_1416" data-name="Path 1416" d="M288.046,281.666h-2.171V279.5a2.1,2.1,0,1,0-4.209,0v2.171H279.5a2.1,2.1,0,1,0,0,4.209h2.171v2.171a2.1,2.1,0,0,0,4.209,0v-2.171h2.171a2.1,2.1,0,0,0,0-4.209Z" transform="translate(-252.15 -252.151)" fill="#16e188"/>
  </g>
</svg>
