<svg xmlns="http://www.w3.org/2000/svg" xmlns:xlink="http://www.w3.org/1999/xlink" width="284.044" height="559.554" viewBox="0 0 284.044 559.554">
  <defs>
    <linearGradient id="linear-gradient" x1="-0.233" y1="0.044" x2="1.254" y2="0.969" gradientUnits="objectBoundingBox">
      <stop offset="0.015" stop-color="#d3d3d3"/>
      <stop offset="0.139" stop-color="#333"/>
      <stop offset="0.228" stop-color="#666"/>
      <stop offset="0.365" stop-color="#f2f2f2"/>
      <stop offset="0.378" stop-color="#e7e7e7"/>
      <stop offset="0.4" stop-color="#cbcbcb"/>
      <stop offset="0.43" stop-color="#9d9d9d"/>
      <stop offset="0.465" stop-color="#5e5e5e"/>
      <stop offset="0.474" stop-color="#4b4b4b"/>
      <stop offset="0.6" stop-color="#b3b3b3"/>
      <stop offset="0.687" stop-color="#848484"/>
      <stop offset="0.739" stop-color="#e6e6e6"/>
      <stop offset="1" stop-color="#4d4d4d"/>
    </linearGradient>
    <linearGradient id="linear-gradient-2" x1="0.923" y1="0.061" x2="-0.022" y2="1.042" gradientUnits="objectBoundingBox">
      <stop offset="0.365" stop-color="#1f224b"/>
      <stop offset="0.803" stop-color="#1a1b41"/>
      <stop offset="1" stop-color="#17173a"/>
    </linearGradient>
    <clipPath id="clip-path">
      <path id="Path_1426" data-name="Path 1426" d="M400.769,71.8H384.846a6.235,6.235,0,0,0-6.281,6.282v2.045a18.579,18.579,0,0,1-18.552,18.552H234.382A18.579,18.579,0,0,1,215.83,80.127V78.082a6.235,6.235,0,0,0-6.281-6.282h-11.1c-20.013,0-31.846,12.125-31.846,26.879V582.647a26.9,26.9,0,0,0,26.879,26.879H400.623A26.9,26.9,0,0,0,427.5,582.647V98.679C427.794,83.925,418.3,71.8,400.769,71.8Z" transform="translate(-166.6 -71.8)"/>
    </clipPath>
    <linearGradient id="linear-gradient-3" x1="0.361" y1="0.612" x2="1.069" y2="-0.382" gradientUnits="objectBoundingBox">
      <stop offset="0" stop-color="#5661e8"/>
      <stop offset="1" stop-color="#3441e2"/>
    </linearGradient>
    <radialGradient id="radial-gradient" cx="0.5" cy="0.492" r="14.758" gradientTransform="matrix(0.034, 0.003, 0, -0.034, -6.42, -1998.054)" gradientUnits="objectBoundingBox">
      <stop offset="0.007" stop-color="#faffff"/>
      <stop offset="0.102" stop-color="#e0e5e7"/>
      <stop offset="0.303" stop-color="#9ea3a9"/>
      <stop offset="0.478" stop-color="#60656f"/>
      <stop offset="0.58" stop-color="#474b55"/>
      <stop offset="0.805" stop-color="#14151f"/>
      <stop offset="0.915" stop-color="#00000a"/>
    </radialGradient>
    <radialGradient id="radial-gradient-2" cx="0.5" cy="0.501" r="51.651" gradientTransform="matrix(0.01, 0.022, 0, -0.009, -6.598, 520.455)" xlink:href="#radial-gradient"/>
    <radialGradient id="radial-gradient-3" cx="0.5" cy="0.509" r="18.043" gradientTransform="matrix(0.028, 0.004, 0, -0.028, -6.457, -2941.761)" xlink:href="#radial-gradient"/>
    <radialGradient id="radial-gradient-4" cx="0.5" cy="0.504" r="39.46" gradientTransform="matrix(0.013, 0.014, 0, -0.012, -6.569, -3136.969)" xlink:href="#radial-gradient"/>
    <radialGradient id="radial-gradient-5" cx="0.5" cy="0.526" r="28.085" gradientTransform="matrix(0.018, 0.01, 0, -0.017, -9.92, 570.178)" xlink:href="#radial-gradient"/>
  </defs>
  <g id="sound_copy" data-name="sound copy" transform="translate(-158.65 -64.35)">
    <g id="Group_1465" data-name="Group 1465" transform="translate(158.9 64.6)">
      <g id="Group_1464" data-name="Group 1464">
        <path id="Path_1421" data-name="Path 1421" d="M410.745,623.654h-220A31.921,31.921,0,0,1,158.9,591.809V96.446A31.921,31.921,0,0,1,190.746,64.6H410.6a31.921,31.921,0,0,1,31.846,31.846V591.809A31.7,31.7,0,0,1,410.745,623.654Zm-220-553.065a26.06,26.06,0,0,0-26,26V591.955a26.06,26.06,0,0,0,26,26H410.6a26.06,26.06,0,0,0,26-26V96.446a26.06,26.06,0,0,0-26-26H190.746Z" transform="translate(-158.9 -64.6)" stroke="#333" stroke-miterlimit="10" stroke-width="0.5" fill="url(#linear-gradient)"/>
      </g>
    </g>
    <path id="Path_1422" data-name="Path 1422" d="M409.693,619.042H190.278A28.741,28.741,0,0,1,161.5,590.264V95.778A28.741,28.741,0,0,1,190.278,67H409.693a28.741,28.741,0,0,1,28.778,28.778V590.264A28.648,28.648,0,0,1,409.693,619.042Z" transform="translate(1.198 1.106)" fill="url(#linear-gradient-2)"/>
    <g id="Group_1466" data-name="Group 1466" transform="translate(161.237 66.791)">
      <path id="Path_1423" data-name="Path 1423" d="M410.007,620.772H190.155A29.676,29.676,0,0,1,160.5,591.117V95.755A29.676,29.676,0,0,1,190.155,66.1H410.007a29.676,29.676,0,0,1,29.655,29.655V591.117A29.676,29.676,0,0,1,410.007,620.772ZM190.155,67.707A28.305,28.305,0,0,0,161.961,95.9V591.263a28.305,28.305,0,0,0,28.194,28.194H410.007A28.305,28.305,0,0,0,438.2,591.263V95.755a28.305,28.305,0,0,0-28.194-28.194H190.155Z" transform="translate(-160.5 -66.1)" fill="#454560"/>
    </g>
    <path id="Path_1424" data-name="Path 1424" d="M400.769,71.8H384.846a6.235,6.235,0,0,0-6.281,6.282v2.045a18.579,18.579,0,0,1-18.552,18.552H234.382A18.579,18.579,0,0,1,215.83,80.127V78.082a6.235,6.235,0,0,0-6.281-6.282h-11.1c-20.013,0-31.846,12.125-31.846,26.879V582.647a26.9,26.9,0,0,0,26.879,26.879H400.623A26.9,26.9,0,0,0,427.5,582.647V98.679C427.794,83.925,418.3,71.8,400.769,71.8Z" transform="translate(3.548 3.318)" fill="#04021b"/>
    <g id="Group_1468" data-name="Group 1468" transform="translate(170.148 75.118)">
      <g id="Group_1467" data-name="Group 1467" clip-path="url(#clip-path)">
        <path id="Path_1425" data-name="Path 1425" d="M433.877,59.2H153.4c1.461,43.386,45.87,55.657,127.091,109.415,21.766,14.462,52.005,25.71,79.614,23.373a187.736,187.736,0,0,0,73.771-22.058Z" transform="translate(-172.683 -77.606)" fill="url(#linear-gradient-3)"/>
      </g>
    </g>
    <path id="XMLID_9_" d="M410.5,69.517c0-2.191-52.589-3.8-117.45-3.506S175.6,68.2,175.6,70.393s52.589,3.8,117.45,3.506S410.5,71.562,410.5,69.517Z" transform="translate(7.696 0.634)" opacity="0.46" fill="url(#radial-gradient)"/>
    <path id="XMLID_345_" d="M409.2,65.52c0-.584-52.589-.876-117.45-.584S174.3,65.813,174.3,66.4s52.589.876,117.45.584C356.61,66.835,409.2,66.1,409.2,65.52Z" transform="translate(7.097 0.102)" opacity="0.46" fill="url(#radial-gradient-2)"/>
    <path id="XMLID_344_" d="M410.5,443.888c0-1.753-52.589-3.068-117.45-2.776s-117.45,1.9-117.45,3.652,52.589,3.068,117.45,2.776S410.5,445.787,410.5,443.888Z" transform="translate(7.696 173.484)" opacity="0.27" fill="url(#radial-gradient-3)"/>
    <path id="XMLID_346_" d="M410.5,440.031c0-.73-52.589-1.169-117.45-1.023-64.86.292-117.45,1.023-117.45,1.9,0,.73,52.589,1.169,117.45,1.023C357.91,441.638,410.5,440.762,410.5,440.031Z" transform="translate(7.696 172.521)" opacity="0.12" fill="url(#radial-gradient-4)"/>
    <path id="XMLID_347_" d="M365.533,90.276c0-.73-37.251-1.315-83.267-1.169S199,90.13,199,90.86s37.251,1.315,83.267,1.169S365.533,91.152,365.533,90.276Z" transform="translate(18.479 11.283)" opacity="0.12" fill="url(#radial-gradient-5)"/>
    <path id="Path_1427" data-name="Path 1427" d="M288.668,81.367H241.483A2.56,2.56,0,0,1,239,78.883h0a2.56,2.56,0,0,1,2.483-2.483h47.184a2.56,2.56,0,0,1,2.483,2.483h0A2.557,2.557,0,0,1,288.668,81.367Z" transform="translate(36.911 5.438)" fill="#1a1a1a"/>
    <path id="Path_1428" data-name="Path 1428" d="M288.668,79.353H241.483a2.5,2.5,0,0,1-2.337-1.753,1.317,1.317,0,0,0-.146.73,2.462,2.462,0,0,0,2.483,2.483h47.184a2.56,2.56,0,0,0,2.483-2.483,1.317,1.317,0,0,0-.146-.73A2.651,2.651,0,0,1,288.668,79.353Z" transform="translate(36.911 5.991)"/>
    <path id="Path_1429" data-name="Path 1429" d="M241.337,76.638h47.33a2.525,2.525,0,0,1,2.483,2.191v-.146a2.56,2.56,0,0,0-2.483-2.483H241.483A2.56,2.56,0,0,0,239,78.683v.146A2.5,2.5,0,0,1,241.337,76.638Z" transform="translate(36.911 5.345)" fill="#fff" opacity="0.17"/>
    <path id="Path_1430" data-name="Path 1430" d="M288.668,80.491H241.483A2.525,2.525,0,0,1,239,78.3v.146a2.56,2.56,0,0,0,2.483,2.483h47.184a2.56,2.56,0,0,0,2.483-2.483V78.3A2.51,2.51,0,0,1,288.668,80.491Z" transform="translate(36.911 6.313)" fill="#fff" opacity="0.17"/>
    <path id="Path_1431" data-name="Path 1431" d="M292.649,79.775a4.675,4.675,0,1,1-4.675-4.675A4.615,4.615,0,0,1,292.649,79.775Z" transform="translate(57.326 4.839)" fill="#1a1a1a"/>
    <path id="Path_1432" data-name="Path 1432" d="M289.482,78.991a2.191,2.191,0,1,1-2.191-2.191A2.247,2.247,0,0,1,289.482,78.991Z" transform="translate(58.155 5.622)" fill="#1f184c"/>
    <path id="Path_1433" data-name="Path 1433" d="M290.461,75.824a4.666,4.666,0,0,0-5.843.73,4.462,4.462,0,0,0-.438,5.843Z" transform="translate(57.322 4.845)" fill="#fff" opacity="0.04"/>
    <g id="Group_1478" data-name="Group 1478" transform="translate(189.139 87.681)" opacity="0.86">
      <g id="Group_1471" data-name="Group 1471" transform="translate(0 2.483)" opacity="0.64">
        <path id="Path_1434" data-name="Path 1434" d="M183.4,83.042a3.265,3.265,0,0,1,.584,2.191,5.562,5.562,0,0,1-.438,2.337,5.72,5.72,0,0,1-1.169,1.461,6.632,6.632,0,0,1-2.045.876l-.146-.438a5.172,5.172,0,0,0,2.337-1.315,2.973,2.973,0,0,0,.876-2.191c-.292.292-.438.584-.73.73a1.936,1.936,0,0,1-2.045,0,1.76,1.76,0,0,1-.73-.73A2.752,2.752,0,0,1,179.6,84.8a4.265,4.265,0,0,1,.292-1.315,3.873,3.873,0,0,1,.73-.876,2.752,2.752,0,0,1,1.169-.292A1.562,1.562,0,0,1,183.4,83.042Zm-.876,3.068a1.5,1.5,0,0,0,.73-.876,5.724,5.724,0,0,0-.292-1.9,1.186,1.186,0,0,0-1.169-.584,1.659,1.659,0,0,0-1.169.438,1.939,1.939,0,0,0-.438,1.461,1.786,1.786,0,0,0,.438,1.315,1.326,1.326,0,0,0,1.023.438A2.076,2.076,0,0,0,182.522,86.11Z" transform="translate(-179.6 -82.02)" fill="#fff"/>
        <path id="Path_1435" data-name="Path 1435" d="M184.223,83.846a.73.73,0,1,1-.438-.146C183.93,83.7,184.077,83.846,184.223,83.846Zm0,4.382a.73.73,0,1,1-.438-.146A.537.537,0,0,1,184.223,88.229Z" transform="translate(-177.941 -81.363)" fill="#fff"/>
        <path id="Path_1436" data-name="Path 1436" d="M188.106,82.83a2.175,2.175,0,0,1,.584,1.315,4.266,4.266,0,0,1-.292,1.315,3.45,3.45,0,0,1-.876,1.315c-.438.438-1.169,1.315-2.045,2.191h3.506l-.146.584h-4.09v-.584c1.023-1.023,1.753-1.9,2.191-2.337a9.906,9.906,0,0,0,.876-1.315,3.438,3.438,0,0,0,.292-1.169,1.5,1.5,0,0,0-1.461-1.461,1.853,1.853,0,0,0-.876.146,2.564,2.564,0,0,0-.73.584l-.438-.292a2.62,2.62,0,0,1,1.023-.73,2.752,2.752,0,0,1,1.169-.292A2.986,2.986,0,0,1,188.106,82.83Z" transform="translate(-177.296 -82.1)" fill="#fff"/>
        <path id="Path_1437" data-name="Path 1437" d="M192.29,83.223a6.884,6.884,0,0,1,0,5.551,2.228,2.228,0,0,1-1.753,1.023,1.907,1.907,0,0,1-1.753-1.023,6.884,6.884,0,0,1,0-5.551,2.228,2.228,0,0,1,1.753-1.023A1.907,1.907,0,0,1,192.29,83.223ZM188.93,86c0,2.191.584,3.214,1.607,3.214a1.3,1.3,0,0,0,1.169-.73,7.256,7.256,0,0,0,0-4.967,1.2,1.2,0,0,0-1.169-.73C189.369,82.784,188.93,83.807,188.93,86Z" transform="translate(-175.637 -82.054)" fill="#fff"/>
      </g>
      <g id="Group_1473" data-name="Group 1473" transform="translate(203.784)" opacity="0.85">
        <g id="Group_1472" data-name="Group 1472">
          <path id="Path_1438" data-name="Path 1438" d="M338.967,89.9h-18.7a1.152,1.152,0,0,1-1.169-1.169V81.569a1.152,1.152,0,0,1,1.169-1.169h18.7a1.152,1.152,0,0,1,1.169,1.169v7.012A1.193,1.193,0,0,1,338.967,89.9Zm-18.7-8.911a.466.466,0,0,0-.438.438v7.158a.466.466,0,0,0,.438.438h18.7a.466.466,0,0,0,.438-.438V81.423a.466.466,0,0,0-.438-.438h-18.7Z" transform="translate(-319.1 -80.4)" fill="#fff"/>
        </g>
      </g>
      <g id="Group_1475" data-name="Group 1475" transform="translate(205.391 1.315)" opacity="0.85">
        <g id="Group_1474" data-name="Group 1474">
          <path id="Path_1439" data-name="Path 1439" d="M337.292,88.02H320.784a.628.628,0,0,1-.584-.584V81.884a.628.628,0,0,1,.584-.584h16.507a.628.628,0,0,1,.584.584v5.551C338.022,87.728,337.73,88.02,337.292,88.02Z" transform="translate(-320.2 -81.3)" fill="#fff"/>
        </g>
      </g>
      <g id="Group_1477" data-name="Group 1477" transform="translate(224.82 3.068)" opacity="0.85">
        <g id="Group_1476" data-name="Group 1476">
          <rect id="Rectangle_120" data-name="Rectangle 120" width="1.461" height="3.214" fill="#fff"/>
        </g>
      </g>
    </g>
    <g id="Group_1480" data-name="Group 1480" transform="translate(260.281 288.945)">
      <g id="Group_1479" data-name="Group 1479" transform="translate(0)">
        <path id="Path_1440" data-name="Path 1440" d="M307.914,219.088a3.849,3.849,0,0,0-3.068-.876l-51.421,9.057a3.751,3.751,0,0,0-3.068,3.652v42.364a3.617,3.617,0,0,1-3.652,3.652h-3.652c-8.034,0-14.754,4.967-14.754,10.956s6.574,10.956,14.754,10.956,14.754-4.967,14.754-10.956V248.6l44.117-7.742v24.98a3.617,3.617,0,0,1-3.652,3.652h-3.652c-8.034,0-14.754,4.967-14.754,10.956S286.44,291.4,294.621,291.4s14.754-4.967,14.754-10.956V221.717A4.371,4.371,0,0,0,307.914,219.088Z" transform="translate(-228.3 -218.175)" fill="#f22087"/>
      </g>
    </g>
    <text id="Musical" transform="translate(226.552 424.523)" fill="#fff" font-size="36" font-family="AnUnfortunateEventDeWarped, An Unfortunate Event DeWarped"><tspan x="0" y="0">Musical</tspan></text>
  </g>
</svg>
