<svg xmlns="http://www.w3.org/2000/svg" width="236.913" height="253.068" viewBox="0 0 236.913 253.068">
  <g id="Group_1406" data-name="Group 1406" transform="translate(-517.474 -71.461)">
    <g id="Group_1391" data-name="Group 1391" transform="translate(517.474 71.461)">
      <path id="Path_1333" data-name="Path 1333" d="M647.986,71.6s45.275,2.3,74.5,40.63,30.037,90.719,31.811,133.149-23.087,74.534-59.525,78.77-46.261-28.343-87.14-46.675-54.507-17.02-78.968-54.662-7.35-95.506,36.989-125.19S647.986,71.6,647.986,71.6Z" transform="translate(-517.474 -71.461)" fill="#c6ff00"/>
      <path id="Path_1334" data-name="Path 1334" d="M647.986,71.6s45.275,2.3,74.5,40.63,30.037,90.719,31.811,133.149-23.087,74.534-59.525,78.77-46.261-28.343-87.14-46.675-54.507-17.02-78.968-54.662-7.35-95.506,36.989-125.19S647.986,71.6,647.986,71.6Z" transform="translate(-517.474 -71.461)" fill="#f3cef2"/>
    </g>
    <g id="Group_1392" data-name="Group 1392" transform="translate(533.784 154.35)">
      <path id="Path_1335" data-name="Path 1335" d="M541.022,223.645h4.767v-5.838a2.665,2.665,0,0,1,2.665-2.665h0a2.665,2.665,0,0,1,2.665,2.665v16.63a2.87,2.87,0,0,0,2.87,2.87h0a2.87,2.87,0,0,0,2.87-2.87V204.313a3.484,3.484,0,0,1,3.485-3.484h0a3.485,3.485,0,0,1,3.485,3.484v40.352a3.28,3.28,0,0,0,3.28,3.28h0a3.28,3.28,0,0,0,3.28-3.28V195.436a4.3,4.3,0,0,1,4.3-4.3h0a4.3,4.3,0,0,1,4.3,4.3v49.008a3.485,3.485,0,0,0,3.485,3.485h0a3.485,3.485,0,0,0,3.485-3.485V205.39a4.1,4.1,0,0,1,4.1-4.1h0a4.1,4.1,0,0,1,4.1,4.1V234.2a3.075,3.075,0,0,0,3.075,3.075h0a3.075,3.075,0,0,0,3.075-3.075V218.538a2.933,2.933,0,0,1,2.933-2.933h0a2.933,2.933,0,0,1,2.933,2.933v5.1h5.457" transform="translate(-541.022 -191.132)" fill="none" stroke="#263238" stroke-miterlimit="10" stroke-width="1"/>
      <path id="Path_1336" data-name="Path 1336" d="M637.522,223.645h4.767v-5.838a2.665,2.665,0,0,1,2.665-2.665h0a2.665,2.665,0,0,1,2.665,2.665v16.63a2.87,2.87,0,0,0,2.87,2.87h0a2.87,2.87,0,0,0,2.87-2.87V204.313a3.484,3.484,0,0,1,3.485-3.484h0a3.485,3.485,0,0,1,3.485,3.484v40.352a3.28,3.28,0,0,0,3.28,3.28h0a3.28,3.28,0,0,0,3.28-3.28V195.436a4.3,4.3,0,0,1,4.3-4.3h0a4.3,4.3,0,0,1,4.3,4.3v49.008a3.485,3.485,0,0,0,3.485,3.485h0a3.485,3.485,0,0,0,3.485-3.485V205.39a4.1,4.1,0,0,1,4.1-4.1h0a4.1,4.1,0,0,1,4.1,4.1V234.2a3.075,3.075,0,0,0,3.075,3.075h0a3.075,3.075,0,0,0,3.075-3.075V218.538a2.933,2.933,0,0,1,2.933-2.933h0a2.933,2.933,0,0,1,2.933,2.933v5.1h5.457" transform="translate(-570.682 -191.132)" fill="none" stroke="#263238" stroke-miterlimit="10" stroke-width="1"/>
      <path id="Path_1337" data-name="Path 1337" d="M734.022,223.645h4.767v-5.838a2.665,2.665,0,0,1,2.665-2.665h0a2.665,2.665,0,0,1,2.665,2.665v16.63a2.87,2.87,0,0,0,2.87,2.87h0a2.87,2.87,0,0,0,2.87-2.87V204.313a3.484,3.484,0,0,1,3.485-3.484h0a3.485,3.485,0,0,1,3.485,3.484v40.352a3.28,3.28,0,0,0,3.28,3.28h0a3.28,3.28,0,0,0,3.28-3.28V195.436a4.3,4.3,0,0,1,4.3-4.3h0a4.3,4.3,0,0,1,4.3,4.3v49.008a3.485,3.485,0,0,0,3.485,3.485h0a3.485,3.485,0,0,0,3.485-3.485V205.39a4.1,4.1,0,0,1,4.1-4.1h0a4.1,4.1,0,0,1,4.1,4.1V234.2a3.075,3.075,0,0,0,3.075,3.075h0a3.075,3.075,0,0,0,3.075-3.075V218.538a2.933,2.933,0,0,1,2.933-2.933h0a2.933,2.933,0,0,1,2.933,2.933v5.1h5.457" transform="translate(-600.343 -191.132)" fill="none" stroke="#263238" stroke-miterlimit="10" stroke-width="1"/>
    </g>
    <g id="Group_1398" data-name="Group 1398" transform="translate(596.993 126.439)">
      <g id="Group_1393" data-name="Group 1393" transform="translate(10.327 5.099)">
        <path id="Rectangle_70" data-name="Rectangle 70" d="M8.313,0H53.676a8.312,8.312,0,0,1,8.312,8.312V107.27a8.313,8.313,0,0,1-8.313,8.313H8.313A8.313,8.313,0,0,1,0,107.27V8.313A8.313,8.313,0,0,1,8.313,0Z" fill="#263238"/>
        <rect id="Rectangle_71" data-name="Rectangle 71" width="53.198" height="96.486" transform="translate(4.395 9.549)" fill="#263238"/>
        <path id="Path_1338" data-name="Path 1338" d="M694.2,163.411h-9.93a1.124,1.124,0,1,0,0,2.248h9.93a1.124,1.124,0,0,0,0-2.248Z" transform="translate(-658.241 -159.8)" fill="#616161"/>
        <path id="Path_1339" data-name="Path 1339" d="M706.089,164.535a1.124,1.124,0,1,1-1.124-1.124A1.124,1.124,0,0,1,706.089,164.535Z" transform="translate(-664.602 -159.8)" fill="#616161"/>
        <path id="Path_1340" data-name="Path 1340" d="M676.788,164.535a1.124,1.124,0,1,1,1.124,1.124A1.124,1.124,0,0,1,676.788,164.535Z" transform="translate(-656.287 -159.8)" fill="#616161"/>
        <path id="Path_1341" data-name="Path 1341" d="M693.439,316.98a2.7,2.7,0,1,1-2.7-2.7A2.7,2.7,0,0,1,693.439,316.98Z" transform="translate(-659.746 -206.172)" fill="#616161"/>
        <rect id="Rectangle_72" data-name="Rectangle 72" width="53.198" height="5.052" transform="translate(4.395 9.549)" fill="#263238"/>
        <rect id="Rectangle_73" data-name="Rectangle 73" width="53.198" height="38.026" transform="translate(4.395 14.601)" fill="#f33200"/>
        <circle id="Ellipse_99" data-name="Ellipse 99" cx="12.713" cy="12.713" r="12.713" transform="translate(18.281 20.901)" fill="#fff"/>
        <rect id="Rectangle_74" data-name="Rectangle 74" width="11.886" height="45.679" rx="5.943" transform="translate(53.834 57.791) rotate(90)" fill="#f33200"/>
        <rect id="Rectangle_75" data-name="Rectangle 75" width="18.447" height="45.679" transform="translate(53.834 84.559) rotate(90)" fill="#fff"/>
        <rect id="Rectangle_76" data-name="Rectangle 76" width="6.797" height="45.679" transform="translate(53.834 74.773) rotate(90)" fill="#fff"/>
        <text id="FOLLOW" transform="translate(4.201 60.782)" fill="#fff" font-size="6" font-family="Montserrat-Bold, Montserrat" font-weight="700" letter-spacing="0.1em"><tspan x="11.326" y="6">FOLLOW</tspan></text>
      </g>
      <path id="Path_1342" data-name="Path 1342" d="M671.784,169.033v11.955H660.126l-4.671,3.566-4.674-3.566h-3.593V169.033Z" transform="translate(-636.862 -156.429)" fill="#444" opacity="0.2" style="mix-blend-mode: multiply;isolation: isolate"/>
      <path id="Path_1343" data-name="Path 1343" d="M632.28,150.836V172.5h13.272l5.319,6.46,5.319-6.46h13.272V150.836Z" transform="translate(-632.28 -150.836)" fill="#1c656a"/>
      <g id="Group_1394" data-name="Group 1394" transform="translate(13.935 4.34)">
        <path id="Path_1344" data-name="Path 1344" d="M657.055,166.4h0a4.656,4.656,0,0,0-4.656,4.656v1.885h9.313v-1.885A4.656,4.656,0,0,0,657.055,166.4Z" transform="translate(-652.399 -159.961)" fill="#f33200"/>
        <path id="Path_1345" data-name="Path 1345" d="M657.886,162.667a2.783,2.783,0,1,0-2.782-2.782A2.783,2.783,0,0,0,657.886,162.667Z" transform="translate(-653.23 -157.102)" fill="#f33200"/>
      </g>
      <path id="Path_1346" data-name="Path 1346" d="M670.48,156.171H668.7v-1.783h-1.072v1.783h-1.784v1.072h1.784v1.783H668.7v-1.783h1.783Z" transform="translate(-642.595 -151.928)" fill="#f9433d"/>
      <g id="Group_1397" data-name="Group 1397" transform="translate(3.91 70.589)">
        <rect id="Rectangle_77" data-name="Rectangle 77" width="8.774" height="38.969" transform="translate(71.517 81.238) rotate(90)" fill="#f5f5f5"/>
        <rect id="Rectangle_78" data-name="Rectangle 78" width="8.774" height="5.793" transform="translate(38.342 81.238) rotate(90)" fill="#dfdfdf"/>
        <path id="Path_1347" data-name="Path 1347" d="M733.659,373.227a2.178,2.178,0,1,1-2.178,2.178A2.178,2.178,0,0,1,733.659,373.227Z" transform="translate(-666.68 -289.78)" fill="#bcbcbc"/>
        <rect id="Rectangle_79" data-name="Rectangle 79" width="33.683" height="4.019" transform="translate(35.191 77.219)" fill="#ebc3a4"/>
        <path id="Path_1348" data-name="Path 1348" d="M733.986,366.575v1.679h2.339v-4.019A2.339,2.339,0,0,0,733.986,366.575Z" transform="translate(-667.45 -287.016)" fill="#e0ab90"/>
        <g id="Group_1396" data-name="Group 1396">
          <g id="Group_1395" data-name="Group 1395">
            <path id="Path_1349" data-name="Path 1349" d="M688.079,276.9a4.816,4.816,0,0,0-5.288-4.792,4.955,4.955,0,0,0-4.342,5v10.077h-1.744V257.771a4.955,4.955,0,0,0-4.342-5,4.816,4.816,0,0,0-5.287,4.792v48.871a4.251,4.251,0,0,1-3.152,3.946,8.262,8.262,0,0,1-5.54-.67l-13.393-6.61a4.816,4.816,0,0,0-6.717,2.412,4.955,4.955,0,0,0,2.37,6.183l24.571,14.339,7.9,3.933H706.8a27.824,27.824,0,0,0,4.024-14.414V283.148a4.954,4.954,0,0,0-4.341-5,4.815,4.815,0,0,0-5.288,4.792v4.246h-1.745V277.71a4.954,4.954,0,0,0-4.341-5,4.816,4.816,0,0,0-5.288,4.792v7.584h-1.744Z" transform="translate(-637.925 -252.749)" fill="#ebc3a4"/>
            <path id="Path_1350" data-name="Path 1350" d="M738.451,289.766c.032.01.053.01.073.032a1.241,1.241,0,0,1,.326.136,1.175,1.175,0,0,1,.262.126,4.375,4.375,0,0,1,1.2.861,4.748,4.748,0,0,1,1.4,3.118,2.629,2.629,0,0,1,.01.284V327.4a27.186,27.186,0,0,1-1.018,7.013A27.834,27.834,0,0,1,738.451,340Z" transform="translate(-668.823 -264.127)" fill="#e0ab90"/>
            <path id="Path_1351" data-name="Path 1351" d="M725.306,286.472v9.679h-3.265V281.915a4.732,4.732,0,0,1,1.858,1.144A4.809,4.809,0,0,1,725.306,286.472Z" transform="translate(-663.779 -261.714)" fill="#e0ab90"/>
            <path id="Path_1352" data-name="Path 1352" d="M708.886,285.6v8.184H705.61v-12.74a4.622,4.622,0,0,1,1.858,1.155A4.765,4.765,0,0,1,708.886,285.6Z" transform="translate(-658.729 -261.445)" fill="#e0ab90"/>
            <path id="Path_1353" data-name="Path 1353" d="M692.46,257.681V287.3H689.2V253.134a4.657,4.657,0,0,1,1.858,1.145A4.783,4.783,0,0,1,692.46,257.681Z" transform="translate(-653.683 -252.868)" fill="#e0ab90"/>
            <path id="Path_1354" data-name="Path 1354" d="M672.736,334.4v-4.332a3.962,3.962,0,0,1-3.018,3.848,8.265,8.265,0,0,1-5.673-.639l-7.7-3.862,12.48,7.242A2.607,2.607,0,0,0,672.736,334.4Z" transform="translate(-643.585 -276.313)" fill="#e0ab90"/>
          </g>
          <path id="Path_1355" data-name="Path 1355" d="M685.8,256.094a2.6,2.6,0,0,0-2.6,2.6v1.873a2.6,2.6,0,0,0,5.206,0V258.7A2.6,2.6,0,0,0,685.8,256.094Z" transform="translate(-651.839 -253.777)" fill="#f5dccb"/>
          <path id="Path_1356" data-name="Path 1356" d="M644.494,332.994l1.68.84a2.606,2.606,0,0,1-.484,4.839l-4.189-2.393a4.982,4.982,0,0,1-.735-.483,2.643,2.643,0,0,1,.242-1.637A2.594,2.594,0,0,1,644.494,332.994Z" transform="translate(-638.786 -277.329)" fill="#f5dccb"/>
        </g>
      </g>
    </g>
    <g id="Group_1404" data-name="Group 1404" transform="translate(696.661 285.431)">
      <g id="Group_1399" data-name="Group 1399" transform="translate(20.869 12.448)">
        <rect id="Rectangle_80" data-name="Rectangle 80" width="8.055" height="2.929" transform="translate(0 12.448)" fill="#f33200"/>
        <rect id="Rectangle_81" data-name="Rectangle 81" width="8.055" height="2.929" transform="translate(0 8.299)" fill="#f33200"/>
        <rect id="Rectangle_82" data-name="Rectangle 82" width="8.055" height="2.929" transform="translate(0 4.149)" fill="#f33200"/>
        <rect id="Rectangle_83" data-name="Rectangle 83" width="8.055" height="2.929" fill="#f33200"/>
      </g>
      <g id="Group_1400" data-name="Group 1400" transform="translate(41.738 20.747)">
        <rect id="Rectangle_84" data-name="Rectangle 84" width="8.055" height="2.929" transform="translate(0 4.149)" fill="#f33200"/>
        <rect id="Rectangle_85" data-name="Rectangle 85" width="8.055" height="2.929" fill="#f33200"/>
      </g>
      <g id="Group_1401" data-name="Group 1401" transform="translate(0 20.747)">
        <rect id="Rectangle_86" data-name="Rectangle 86" width="8.055" height="2.929" transform="translate(0 4.149)" fill="#f33200"/>
        <rect id="Rectangle_87" data-name="Rectangle 87" width="8.055" height="2.929" fill="#f33200"/>
      </g>
      <g id="Group_1402" data-name="Group 1402" transform="translate(10.434)">
        <rect id="Rectangle_88" data-name="Rectangle 88" width="8.055" height="2.929" transform="translate(0 24.896)" fill="#f33200"/>
        <rect id="Rectangle_89" data-name="Rectangle 89" width="8.055" height="2.929" transform="translate(0 20.747)" fill="#f33200"/>
        <rect id="Rectangle_90" data-name="Rectangle 90" width="8.055" height="2.929" transform="translate(0 16.597)" fill="#f33200"/>
        <rect id="Rectangle_91" data-name="Rectangle 91" width="8.055" height="2.929" transform="translate(0 12.448)" fill="#f33200"/>
        <rect id="Rectangle_92" data-name="Rectangle 92" width="8.055" height="2.929" transform="translate(0 8.299)" fill="#f33200"/>
        <rect id="Rectangle_93" data-name="Rectangle 93" width="8.055" height="2.929" transform="translate(0 4.149)" fill="#f33200"/>
        <rect id="Rectangle_94" data-name="Rectangle 94" width="8.055" height="2.929" fill="#f33200"/>
      </g>
      <g id="Group_1403" data-name="Group 1403" transform="translate(31.303 4.149)">
        <rect id="Rectangle_95" data-name="Rectangle 95" width="8.055" height="2.929" transform="translate(0 20.747)" fill="#f33200"/>
        <rect id="Rectangle_96" data-name="Rectangle 96" width="8.055" height="2.929" transform="translate(0 16.597)" fill="#f33200"/>
        <rect id="Rectangle_97" data-name="Rectangle 97" width="8.055" height="2.929" transform="translate(0 12.448)" fill="#f33200"/>
        <rect id="Rectangle_98" data-name="Rectangle 98" width="8.055" height="2.929" transform="translate(0 8.299)" fill="#f33200"/>
        <rect id="Rectangle_99" data-name="Rectangle 99" width="8.055" height="2.929" transform="translate(0 4.149)" fill="#f33200"/>
        <rect id="Rectangle_100" data-name="Rectangle 100" width="8.055" height="2.929" fill="#f33200"/>
      </g>
    </g>
    <g id="Group_1405" data-name="Group 1405" transform="translate(636.325 85.478)">
      <path id="Path_1357" data-name="Path 1357" d="M697.292,106.948v-6.418l-5.558,3.209Z" transform="translate(-689.886 -94.412)" fill="#263238"/>
      <rect id="Rectangle_101" data-name="Rectangle 101" width="1.01" height="6.562" transform="translate(0 5.962)" fill="#263238"/>
      <path id="Path_1358" data-name="Path 1358" d="M742.218,106.948l5.558-3.209-5.558-3.209Z" transform="translate(-705.403 -94.412)" fill="#263238"/>
      <rect id="Rectangle_102" data-name="Rectangle 102" width="1.01" height="6.562" transform="translate(43.211 5.962)" fill="#263238"/>
      <path id="Path_1359" data-name="Path 1359" d="M717.667,91.7a8.548,8.548,0,1,0,8.548,8.548A8.548,8.548,0,0,0,717.667,91.7Zm-1.214,13.053h-2.541v-9.01h2.541Zm4.968,0h-2.541v-9.01h2.541Z" transform="translate(-695.229 -91.698)" fill="#263238"/>
    </g>
  </g>
</svg>
