<svg xmlns="http://www.w3.org/2000/svg" width="26.896" height="26.896" viewBox="0 0 26.896 26.896">
  <g id="instagram" transform="translate(0 26.896) rotate(-90)">
    <g id="Group_1285" data-name="Group 1285" transform="translate(0 0)">
      <g id="Group_1284" data-name="Group 1284">
        <path id="Path_1209" data-name="Path 1209" d="M19.083,0H7.813A7.822,7.822,0,0,0,0,7.813v11.27A7.822,7.822,0,0,0,7.813,26.9h11.27A7.822,7.822,0,0,0,26.9,19.083V7.813A7.822,7.822,0,0,0,19.083,0ZM24.8,19.083A5.718,5.718,0,0,1,19.083,24.8H7.813A5.718,5.718,0,0,1,2.1,19.083V7.813A5.718,5.718,0,0,1,7.813,2.1h11.27A5.718,5.718,0,0,1,24.8,7.813Z" fill="#8f8d8d"/>
      </g>
    </g>
    <g id="Group_1287" data-name="Group 1287" transform="translate(6.397 6.199)">
      <g id="Group_1286" data-name="Group 1286">
        <path id="Path_1210" data-name="Path 1210" d="M7.249,0A7.249,7.249,0,1,0,14.5,7.249,7.258,7.258,0,0,0,7.249,0Zm0,12.4A5.148,5.148,0,1,1,12.4,7.249,5.154,5.154,0,0,1,7.249,12.4Z" fill="#8f8d8d"/>
      </g>
    </g>
    <g id="Group_1289" data-name="Group 1289" transform="translate(19.752 5.043)">
      <g id="Group_1288" data-name="Group 1288">
        <ellipse id="Ellipse_91" data-name="Ellipse 91" cx="1.051" cy="1.051" rx="1.051" ry="1.051" fill="#8f8d8d"/>
      </g>
    </g>
  </g>
</svg>
