<svg xmlns="http://www.w3.org/2000/svg" width="56.757" height="56.757" viewBox="0 0 56.757 56.757">
  <g id="music-note" style="isolation: isolate">
    <g id="Group_1315" data-name="Group 1315">
      <path id="Path_1218" data-name="Path 1218" d="M55.835.6a2.6,2.6,0,0,0-2.1-.567L17.613,6.389a2.584,2.584,0,0,0-2.134,2.543V38.691a2.582,2.582,0,0,1-2.58,2.581h-2.58C4.628,41.272,0,44.745,0,49.014s4.628,7.743,10.319,7.743,10.319-3.473,10.319-7.743V21.42L51.6,15.957V33.529a2.582,2.582,0,0,1-2.58,2.581h-2.58c-5.691,0-10.319,3.473-10.319,7.743S40.747,51.6,46.438,51.6s10.319-3.473,10.319-7.743V2.578A2.575,2.575,0,0,0,55.835.6Z" transform="translate(0 0)" fill="#16e188"/>
    </g>
  </g>
</svg>
