<svg id="Group_1280" data-name="Group 1280" xmlns="http://www.w3.org/2000/svg" width="35" height="27.679" viewBox="0 0 35 27.679">
  <path id="Path_1202" data-name="Path 1202" d="M35,3.275a14.643,14.643,0,0,1-4.123,1.1A7.056,7.056,0,0,0,34.033.511a14.715,14.715,0,0,1-4.562,1.7A7.251,7.251,0,0,0,24.231,0a7.087,7.087,0,0,0-7.18,6.988,6.833,6.833,0,0,0,.186,1.593,20.572,20.572,0,0,1-14.8-7.3,6.8,6.8,0,0,0-.971,3.513,6.94,6.94,0,0,0,3.193,5.817,7.329,7.329,0,0,1-3.252-.877v.087a7.047,7.047,0,0,0,5.759,6.854,7.458,7.458,0,0,1-1.892.245,7.073,7.073,0,0,1-1.352-.13,7.162,7.162,0,0,0,6.706,4.855A14.656,14.656,0,0,1,1.712,24.63,15.669,15.669,0,0,1,0,24.534a20.7,20.7,0,0,0,11.005,3.145A20.006,20.006,0,0,0,31.433,7.791l-.024-.9A14.136,14.136,0,0,0,35,3.275Z" transform="translate(0 0)" fill="#8f8d8d"/>
</svg>
