<svg xmlns="http://www.w3.org/2000/svg" width="106" height="106.151" viewBox="0 0 106 106.151">
  <g id="rating_1_" data-name="rating (1)" transform="translate(-0.362 0.001)">
    <circle id="Ellipse_115" data-name="Ellipse 115" cx="3.106" cy="3.106" r="3.106" transform="translate(81.311 0.149)" fill="#fcbf29"/>
    <path id="Path_1450" data-name="Path 1450" d="M136.82,30.916h0a3.1,3.1,0,0,1-2.778-1.716l-3.676-7.357-7.357-3.676a3.106,3.106,0,0,1,0-5.556l7.357-3.676,3.676-7.357a3.234,3.234,0,0,1,5.556,0l3.679,7.357,7.354,3.676a3.106,3.106,0,0,1,0,5.556l-7.354,3.676L139.6,29.2A3.106,3.106,0,0,1,136.82,30.916Z" transform="translate(-95.859)" fill="#fedb41"/>
    <path id="Path_1451" data-name="Path 1451" d="M437.292,96.808h-3.105V93.7a3.106,3.106,0,0,0-6.211,0v3.106H424.87a3.106,3.106,0,1,0,0,6.211h3.105v3.106a3.106,3.106,0,0,0,6.211,0v-3.106h3.105a3.106,3.106,0,1,0,0-6.211Z" transform="translate(-334.035 -71.815)" fill="#fcbf29"/>
    <path id="Path_1452" data-name="Path 1452" d="M234.107,154.217H204.336A21.367,21.367,0,0,1,189,147.82l-6.956-6.956a2.912,2.912,0,0,1-.932-2.174V101.01a3.075,3.075,0,0,1,3.106-3.106h6.211l9.813-9.876a29.538,29.538,0,0,0,8.819-21.179,6.211,6.211,0,0,1,12.422,0v4.72A64.984,64.984,0,0,1,217.5,93.743L215.951,97.9H232.8l.5,21.2Z" transform="translate(-143.272 -48.068)" fill="#ffdcac"/>
    <path id="Path_1453" data-name="Path 1453" d="M234.107,377.752H204.336a21.367,21.367,0,0,1-15.341-6.4l-6.956-6.956a2.912,2.912,0,0,1-.932-2.174V342.64H233.3Z" transform="translate(-143.272 -271.603)" fill="#ffdcac"/>
    <path id="Path_1454" data-name="Path 1454" d="M385.157,268.542a7.124,7.124,0,0,1,6.956,7.163,6.959,6.959,0,0,1-6.956,7.018h-6.211a6.987,6.987,0,0,1,0,13.974H367.808a6.987,6.987,0,0,1,0-13.974,6.958,6.958,0,0,1-6.956-7.018,7.124,7.124,0,0,1,6.956-7.163,6.945,6.945,0,0,1-6.956-6.956,7.139,7.139,0,0,1,6.956-7.225,6.987,6.987,0,0,1,0-13.974h17.349a6.987,6.987,0,0,1,0,13.974,7.138,7.138,0,0,1,6.956,7.225A6.945,6.945,0,0,1,385.157,268.542Z" transform="translate(-285.752 -190.549)" fill="#f8d19b"/>
    <path id="Path_1455" data-name="Path 1455" d="M392.114,356.76a6.959,6.959,0,0,1-6.956,7.018h-6.211a6.987,6.987,0,0,1,0,13.974H367.808a6.987,6.987,0,0,1,0-13.974,6.958,6.958,0,0,1-6.956-7.018,7.124,7.124,0,0,1,6.956-7.163,6.945,6.945,0,0,1-6.956-6.956h31.262a6.945,6.945,0,0,1-6.956,6.956A7.124,7.124,0,0,1,392.114,356.76Z" transform="translate(-285.752 -271.604)" fill="#fecd8a"/>
    <path id="Path_1456" data-name="Path 1456" d="M136.718,210.428H124.3a3.075,3.075,0,0,0-3.106,3.105v50.1a3.075,3.075,0,0,0,3.106,3.105h12.422a3.075,3.075,0,0,0,3.106-3.105v-50.1A3.075,3.075,0,0,0,136.718,210.428Z" transform="translate(-95.778 -166.802)" fill="#22f297"/>
    <path id="Path_1457" data-name="Path 1457" d="M121.191,342.64h18.633v25.8a3.075,3.075,0,0,1-3.106,3.105H124.3a3.075,3.075,0,0,1-3.106-3.105S121.191,342.64,121.191,342.64Z" transform="translate(-95.778 -271.603)" fill="#0ce686"/>
    <path id="Path_1458" data-name="Path 1458" d="M28.518,180.47H3.468a3.075,3.075,0,0,0-3.106,3.106V246.1A3.075,3.075,0,0,0,3.468,249.2H28.518a3.075,3.075,0,0,0,3.106-3.106V183.576A3.075,3.075,0,0,0,28.518,180.47Z" transform="translate(0 -143.055)" fill="#31418d"/>
    <path id="Path_1459" data-name="Path 1459" d="M.362,342.64H31.624v32.007a3.075,3.075,0,0,1-3.106,3.106H3.468a3.075,3.075,0,0,1-3.106-3.106S.362,342.64.362,342.64Z" transform="translate(0 -271.603)" fill="#122168"/>
    <circle id="Ellipse_116" data-name="Ellipse 116" cx="3.106" cy="3.106" r="3.106" transform="translate(12.99 87.518)" fill="#cae8f9"/>
  </g>
</svg>
