<svg xmlns="http://www.w3.org/2000/svg" width="23.356" height="25.487" viewBox="0 0 23.356 25.487">
  <g id="music-and-multimedia" transform="translate(-8.723 -9.513)">
    <path id="Path_1418" data-name="Path 1418" d="M177.995,131.454l-6.388-3.194a2.1,2.1,0,0,0-3.033,1.875v10.68h-2.163a6.355,6.355,0,1,0,6.355,6.355V133.526l3.354,1.677a2.1,2.1,0,0,0,1.875-3.75Zm-9.421,15.715a2.163,2.163,0,1,1-2.163-2.163h2.163Z" transform="translate(-147.075 -118.524)" fill="#16e188"/>
    <path id="Path_1419" data-name="Path 1419" d="M124.776,136.541v-1.1h1.1a2.1,2.1,0,1,0,0-4.192h-1.1v-1.1a2.1,2.1,0,0,0-4.192,0v1.1h-1.1a2.1,2.1,0,0,0,0,4.192h1.1v1.1a2.1,2.1,0,1,0,4.192,0Z" transform="translate(-108.667 -118.542)" fill="#16e188"/>
  </g>
</svg>
