<svg xmlns="http://www.w3.org/2000/svg" xmlns:xlink="http://www.w3.org/1999/xlink" width="152.333" height="56.367" viewBox="0 0 152.333 56.367">
  <defs>
    <linearGradient id="linear-gradient" y1="0.574" x2="1" y2="0.574" gradientUnits="objectBoundingBox">
      <stop offset="0" stop-color="#21abf3"/>
      <stop offset="1" stop-color="#7a1150"/>
    </linearGradient>
  </defs>
  <path id="sound" d="M-33.979,141.683a1.722,1.722,0,0,0,1.643-1.254l9.05-30.971,8.357,17.162a1.715,1.715,0,0,0,1.427.972,1.725,1.725,0,0,0,1.533-.782l6.353-9.786H80.618a1.762,1.762,0,0,0,0-3.523H-6.535a1.7,1.7,0,0,0-1.427.785l-5.221,8.042-8.967-18.42a1.68,1.68,0,0,0-1.684-.976,1.726,1.726,0,0,0-1.5,1.247l-8.319,28.463L-42.59,86.73a1.656,1.656,0,0,0-1.756-1.409,1.734,1.734,0,0,0-1.64,1.567l-3.16,29.192-4.659-2.392a1.678,1.678,0,0,0-.758-.187H-68.285A1.739,1.739,0,0,0-70,115.263a1.739,1.739,0,0,0,1.715,1.761h13.317l6.5,3.336a1.694,1.694,0,0,0,2.305-.775,1.8,1.8,0,0,0,.175-.605l2.213-20.431,8.113,41.725a1.73,1.73,0,0,0,1.6,1.409h.079Z" transform="translate(70 -85.316)" fill="url(#linear-gradient)"/>
</svg>
